<svg xmlns="http://www.w3.org/2000/svg" width="16" height="16" viewBox="0 0 16 16">
    <g fill="none" fill-rule="evenodd">

        <path fill="#40B6E0" fill-opacity=".6"
              d="m 15,8 C 15,11.866 11.866,15 8,15 C 4.134,15 1,11.866 1,8 C 1,4.134 4.134,1 8,1 C 11.866,1 15,4.134 15,8"
        />
        <path fill="#231f20" fill-opacity=".7"
              d="m 7.2205237,9.2734991 c -0.47,0.459 -0.9719999,0.6954683 -1.9,0.7174681 -1.039,0.022 -2.1,-0.7205998 -2.1,-1.9995998 0,-1.288 0.971,-2.0004 2.1,-2.0004 0.8483317,0 1.4483317,0.1847534 1.8,0.5542602 l 0.6162,-0.7175293 c -0.6868001,-0.5665557 -1.227931,-0.8363309 -2.418,-0.8363309 -1.7579999,0 -3.0979999,1.3580001 -3.0979999,3 0,1.6820001 1.364,2.9999996 3.0019999,2.9999996 1.2906467,0 2.021,-0.407 2.6140001,-1.0189995 -0.4108,-0.4659122 -0.6162,-0.6988684 -0.6162001,-0.6988684 z"
        />
        <path fill="#231f20" fill-opacity=".7"
              d="m 10.533623,11.014405 c -0.891666,0 -1.7333326,-0.308333 -2.4333326,-0.933333 L 8.7169571,9.3477384 c 0.5583334,0.4833333 1.125,0.7583336 1.8416659,0.7583336 0.633334,0 1.033334,-0.3000003 1.033334,-0.7333336 v -0.016667 c 0,-0.4166667 -0.233334,-0.6416667 -1.316667,-0.8916667 C 9.0336238,8.1644046 8.3336237,7.7977379 8.3336237,6.7227378 v -0.016667 c 0,-1 0.8333333,-1.6916666 1.9916663,-1.6916666 0.85,0 1.525,0.2583334 2.116667,0.7333333 l -0.55,0.7750001 c -0.525,-0.3916666 -1.05,-0.6 -1.583334,-0.6 -0.5999991,0 -0.9499994,0.3083334 -0.9499994,0.6916667 v 0.016667 c 0,0.45 0.2666667,0.65 1.3916664,0.9166666 1.233333,0.3 1.866667,0.7416667 1.866667,1.7083334 v 0.016667 c 0,1.0916657 -0.858334,1.7416657 -2.083334,1.7416667 z"
        />
<!--        <path fill="#E52A15" fill-opacity=".7"-->
<!--              d="m 4.02,12.50 c 0.06,-0.15 0.17,-0.27 0.3,-0.36 0.13,-0.08 0.28,-0.13 0.45,-0.13 0.16,0 0.3,0.05 0.42,0.12 0.13,0.08 0.23,0.2 0.31,0.33 0.05,0.09 0.13,0.15 0.21,0.19 0.07,0.04 0.15,0.07 0.24,0.07 0.1,0 0.18,-0.03 0.26,-0.07 0.08,-0.04 0.15,-0.1 0.2,-0.19 0.07,-0.15 0.17,-0.27 0.3,-0.35 0.13,-0.09 0.28,-0.13 0.45,-0.13 0.16,0 0.3,0.04 0.42,0.12 0.13,0.08 0.23,0.19 0.32,0.32 0.06,0.09 0.13,0.15 0.21,0.2 0.07,0.04 0.15,0.06 0.24,0.06 0.1,0 0.2,-0.02 0.28,-0.06 0.07,-0.03 0.12,-0.08 0.17,-0.16 0.06,-0.13 0.16,-0.24 0.29,-0.32 0.13,-0.08 0.28,-0.13 0.44,-0.13 0.16,0 0.3,0.05 0.43,0.12 0.12,0.08 0.23,0.2 0.30,0.33 0.06,0.09 0.13,0.15 0.21,0.19 0.07,0.04 0.16,0.07 0.24,0.07 0.1,0 0.19,-0.03 0.27,-0.07 0.07,-0.04 0.14,-0.1 0.19,-0.19 0.08,-0.16 0.2,-0.3 0.35,-0.38 l 0.16,0.2 c -0.26,0.15 -0.27,0.44 -0.57,0.61 -0.12,0.06 -0.26,0.1 -0.4,0.1 -0.13,0 -0.25,-0.04 -0.37,-0.1 -0.11,-0.07 -0.22,-0.16 -0.3,-0.26 v -0.01 -0.01 c -0.06,-0.1 -0.14,-0.19 -0.23,-0.25 -0.08,-0.05 -0.17,-0.08 -0.28,-0.08 -0.11,0 -0.21,0.03 -0.3,0.08 -0.09,0.06 -0.16,0.15 -0.2,0.23 v 0.01 0 c -0.07,0.12 -0.17,0.21 -0.28,0.26 -0.12,0.06 -0.26,0.09 -0.4,0.09 -0.13,0 -0.26,-0.04 -0.37,-0.1 -0.12,-0.06 -0.23,-0.15 -0.31,-0.26 v -0.01 h -0.01 c -0.06,-0.12 -0.13,-0.2 -0.22,-0.26 -0.08,-0.05 -0.17,-0.08 -0.28,-0.08 -0.11,0 -0.22,0.04 -0.3,0.09 -0.09,0.06 -0.17,0.16 -0.21,0.26 l -0.01,0.01 v 0.01 c -0.08,0.12 -0.18,0.21 -0.3,0.28 -0.12,0.06 -0.25,0.1 -0.39,0.1 -0.13,0 -0.26,-0.04 -0.37,-0.1 -0.12,-0.07 -0.22,-0.16 -0.30,-0.26 v -0.01 l -0.01,-0.01 c -0.06,-0.1 -0.13,-0.19 -0.22,-0.25 -0.08,-0.05 -0.17,-0.08 -0.28,-0.08 -0.11,0 -0.22,0.03 -0.3,0.09 -0.09,0.06 -0.17,0.15 -0.21,0.25 z"-->
<!--        />-->
    </g>
</svg>
